<svg xmlns="http://www.w3.org/2000/svg" width="888" height="555.498" viewBox="0 0 888 555.498">
  <g id="Group_24" data-name="Group 24" transform="translate(-143.695 -234.805)">
    <path id="Path_1" data-name="Path 1" d="M1024.308,789.023c-50.785,0-790.589.182-791.017-1.142l-.072-.168a.9.9,0,0,1-.072-.245c-.283-.662-113.987-186.653,62.78-316.13,69.164-50.661-4.328-84.1,50.671-140.5,63.208-64.81,132.188,6.886,202.473-22.5,12.419-5.187,24.88-13.537,37.355-26.351a138.691,138.691,0,0,1,22.956-18.947q1.895-1.256,3.828-2.45a153.169,153.169,0,0,1,15.316-8.265q5.308-2.488,10.817-4.6h0a177.777,177.777,0,0,1,17.928-5.8,203.867,203.867,0,0,1,26.738-5.215q5.964-.771,12.024-1.219c78.534-5.869,166.914,27.145,212.524,75.4,9.182,9.717,50.938,59.995,18.023,129.1-20.782,43.631,66.278,85.3,97.215,135.126C1102.452,701.78,1025.022,787.371,1024.308,789.023Z" transform="translate(-34.36)" fill="#abb9ff" opacity="0.15"/>
    <path id="Path_2" data-name="Path 2" d="M388.112,1728.915h33.465c1.794-1.521-1.241-4.975-4.411-5.208a19.577,19.577,0,0,0-5.108.6c-.46-6.116-3.09-33.612-13-32.507-11.144,1.237,0,12.109,3.15,18.546a153.073,153.073,0,0,1,5.921,14.83c-.9.2-1.841.388-2.8.565-1.477-4.535-6.973-19.79-13.962-18.9-8.206,1.041-4.907,7.157.909,10.788,4.267,2.67,9.507,6.465,12,8.3a35.551,35.551,0,0,1-6.545.524C392,1726.317,389.2,1728.006,388.112,1728.915Z" transform="translate(-156.795 -941.06)" fill="#a8d29f"/>
    <g id="Group_1" data-name="Group 1" transform="translate(415.746 374.948)" opacity="0.5">
      <path id="Path_3" data-name="Path 3" d="M1103.046,744.731s-8.332-69.79-44.093-111.438a7.8,7.8,0,0,0-13.7,5.283q0,.182.011.369C1045.731,651.394,1085.771,703.908,1103.046,744.731Z" transform="translate(-998.067 -630.581)" fill="#aec3ff" opacity="0.5"/>
      <path id="Path_4" data-name="Path 4" d="M1021.315,777.485s-35.635-87.23-96.5-125.809a8.28,8.28,0,0,0-11.227,2.122c-1.62,2.358-2.349,6.043-.53,11.8C917.906,680.938,985.791,732.583,1021.315,777.485Z" transform="translate(-911.99 -643.356)" fill="#aec3ff" opacity="0.5"/>
    </g>
    <g id="Group_2" data-name="Group 2" transform="translate(531.283 588.683)" opacity="0.5">
      <path id="Path_5" data-name="Path 5" d="M1245.811,1304.242s5.113-42.83,27.06-68.389a4.79,4.79,0,0,1,8.4,3.242q0,.112-.007.227C1280.985,1246.961,1256.413,1279.189,1245.811,1304.242Z" transform="translate(-1243.144 -1234.189)" fill="#aec3ff" opacity="0.5"/>
      <path id="Path_6" data-name="Path 6" d="M1238.278,1324.343s21.869-53.533,59.223-77.208a5.082,5.082,0,0,1,6.89,1.3c.994,1.447,1.441,3.709.325,7.24C1301.74,1265.092,1260.08,1296.786,1238.278,1324.343Z" transform="translate(-1238.278 -1242.028)" fill="#aec3ff" opacity="0.5"/>
    </g>
    <path id="Path_7" data-name="Path 7" d="M662.516,1282.442s19.773,54.281,9.446,57.336-17.672-62.073-17.672-62.073S598.1,1261.239,578,1266.581c0,0,41.3,49.38,30.543,49.8s-56.129-48.969-56.129-48.969-55.011-1.091-58.366,31.954,13.089,46.582,21.324,47.256,58.871-8.345,58.639-1.537-32.765,23-52.854,20.215c0,0,29.667,48.589,56.912,41.393s32.99-25.743,49.908-29.883,30.2-1.591,22.392,4.434-37.316,7.7-49.217,21.746-21.921,23.439,4.66,24.179c72.752,2.027,84.1-52.439,84.1-52.439s44.868-35.823,15.613-69.588C705.517,1305.142,683.264,1285.116,662.516,1282.442Z" transform="translate(-226.003 -665.739)" fill="#aec3ff" opacity="0.3"/>
    <path id="Path_8" data-name="Path 8" d="M1747.039,1100.4c18.687-14.914-3.421-47.775-3.421-47.775s-47.571-8.2-51.514-14.871,42.041-.934,42.041-.934c-4.605-14.248-36.476-41.828-36.476-41.828s-42.272,20.948-44.45,13.507,38.376-16.639,38.376-16.639c-9.708-11.512-30.5-17.169-30.5-17.169-31.837-4.538-36.02,36.578-36.02,36.578s-14.806,6.944-36.025,5.139h0a55.656,55.656,0,0,0-10.4-.5l1.564,3.608c1.1-.125,2.171-.205,3.224-.235a.023.023,0,0,1,.019,0h.046c.665.006,1.612.017,2.77.04h0s0,0,.005,0c2.636.166,4.553.22,5.907.192h.012c8.205.366,19.093,1.3,22.319,3.668a7.627,7.627,0,0,1,1.32-1.489l-1.32,1.489c-10.556,11.913.626,43.747,11.614,59.42s12.589,6.071,16.447-6.607-6.632-31.186-6.031-38.26,7.323-.03,11.413,11.821-4.892,22.558,1.376,41.85,47.235,18.3,47.235,18.3c-9.516-11.071-12.4-37.069-8.374-39.863s18.313,31.362,21.932,36.081S1728.352,1115.317,1747.039,1100.4Z" transform="translate(-926.84 -477.671)" fill="#aec3ff" opacity="0.5"/>
    <path id="Path_9" data-name="Path 9" d="M1709.3,620.434c-5.786-18.733-37.493-11.7-37.493-11.7S1651.3,642.59,1645.024,643.6s11.883-32.371,11.883-32.371c-12.256-.754-42.857,15.311-42.857,15.311s3.326,38.544-3.006,37.978-1.2-34.279-1.2-34.279c-11.7,3.961-22.244,18.139-22.244,18.139-13,22.943,17.13,38.454,17.13,38.454s.864,13.382-6.871,29.039h0a45.612,45.612,0,0,0-3.5,7.792l3.223-.113q.349-1.31.786-2.532a.018.018,0,0,1,.006-.014l.013-.035c.2-.506.5-1.226.861-2.1l0,0s0,0,0,0c.917-1.962,1.532-3.409,1.917-4.452a.037.037,0,0,0,0-.01c2.738-6.154,6.711-14.185,9.487-15.939a6.231,6.231,0,0,1-.742-1.454l.742,1.454c5.931,11.627,33.581,12.629,48.836,8.937s8.406-7.79-.115-14.534-25.793-4.281-31.012-6.859,2.171-5.6,12.443-5.171,15.754,10.493,32.358,11.488,28.119-30.574,28.119-30.574c-11.3,3.947-32.012-1.638-32.938-5.55s29.427-4.583,34.113-5.932S1715.09,639.167,1709.3,620.434Z" transform="translate(-930.517 -240.686)" fill="#aec3ff" opacity="0.5"/>
    <path id="Path_10" data-name="Path 10" d="M1264.551,465.839a31.512,31.512,0,0,1,30.43-15.013s31.151-28.15,64.37-3.753c0,0,35.311-6.045,61.462,5.234,17.435,7.52,23.194,15.409,23.194,15.409Z" transform="translate(-723.965 -130.679)" fill="#f8fcff"/>
    <path id="Path_11" data-name="Path 11" d="M1657.2,399.316s6.362-12.794,21.578-11.372c0,0,22.09-21.324,45.647-2.843,0,0,25.04-4.579,43.584,3.964,12.364,5.7,16.448,11.672,16.448,11.672Z" transform="translate(-977.577 -92.209)" fill="#f8fcff"/>
    <path id="Path_12" data-name="Path 12" d="M655.039,853.74s5.737-12.794,19.457-11.372c0,0,19.918-21.324,41.158-2.843,0,0,22.578-4.579,39.3,3.965,11.148,5.7,14.83,11.672,14.83,11.672Z" transform="translate(-330.279 -385.723)" fill="#f8fcff"/>
    <g id="Group_3" data-name="Group 3" transform="translate(407.749 403.98)">
      <path id="Path_13" data-name="Path 13" d="M938.748,1008.067H889.407V951.051h59.209l15.9-95.393H909.692V798.642h64.691l14.8-86.073h58.661l-14.8,86.073h89.911l14.254-86.073h58.661l-14.8,86.073h48.793v57.016H1171.2l-15.9,95.393h54.823v57.016h-64.692l-15.351,88.266h-58.661l15.351-88.266H996.861l-14.8,88.266H923.4Zm157.892-57.016,16.447-95.393h-89.911l-16.447,95.393Z" transform="translate(-889.407 -712.569)" fill="#f77d48"/>
    </g>
    <g id="Group_5" data-name="Group 5" transform="translate(330.479 510.445)">
      <path id="Path_14" data-name="Path 14" d="M696.586,1222.822c0-.178,2.609-5.573,1.779-5.987s-2.317-.352-2.49.592S696.586,1222.822,696.586,1222.822Z" transform="translate(-687.12 -1144.583)" fill="#ffb27d"/>
      <path id="Path_15" data-name="Path 15" d="M681.642,1217.672c0-.529-.611-8.606-1.973-10.214s-4.144-3.894-5.019-3.824-4.3,4.617-3.268,8.1,5.37,8.2,5.37,8.2Z" transform="translate(-671.191 -1136.214)" fill="#ffb27d"/>
      <g id="Group_4" data-name="Group 4" transform="translate(0.941 55.575)">
        <path id="Path_16" data-name="Path 16" d="M691.467,1186.282l-7.931,2.377a.5.5,0,0,1-.619-.334l-4.533-15.123a.5.5,0,0,1,.334-.619l7.931-2.377a.5.5,0,0,1,.619.334l4.533,15.124A.5.5,0,0,1,691.467,1186.282Z" transform="translate(-676.764 -1170.184)" fill="#f1a34f"/>
        <path id="Path_17" data-name="Path 17" d="M686.491,1188l-7.194,2.156a.883.883,0,0,1-1.1-.592l-4.312-14.387a.882.882,0,0,1,.592-1.1l7.194-2.156a.882.882,0,0,1,1.1.592l4.312,14.386A.882.882,0,0,1,686.491,1188Z" transform="translate(-673.849 -1171.281)" fill="#d86713"/>
      </g>
      <path id="Path_18" data-name="Path 18" d="M678.647,1196.522s3.3-5.082,4.11-4.8c1.152.4-2.994,6.852-2.994,6.852s3.073-4.818,3.552-4.456c1.093.826-.647,3.854-2.373,6.175,0,0,3.089-2.83,3.19-2.32.353,1.785-3.392,6.11-3.392,6.11l-2.093-4.78Z" transform="translate(-676.007 -1128.514)" fill="#ffb27d"/>
      <path id="Path_19" data-name="Path 19" d="M671.651,1197.311c.16-.621.966-12.757,1.311-11.605s1.166,7.514,1.166,7.514Z" transform="translate(-671.488 -1124.585)" fill="#ffb27d"/>
      <path id="Path_20" data-name="Path 20" d="M733.6,1177.391s-.346,13.194-4.151,23.842c-3.006,8.409-8.17,15.231-17.028,12.711q-1.359-.387-2.633-.832a.028.028,0,0,0-.011,0c-18-6.269-23.82-20.619-23.82-20.619,1.341-2.21,5.223-3.024,5.223-3.024,3.624.195,19.551,6.958,20.568,7.164,3.683.74,6.659-19.5,9.054-26.517s12.192-10.151,12.192-10.151Z" transform="translate(-680.725 -1108.006)" fill="#f99746"/>
      <path id="Path_21" data-name="Path 21" d="M773.262,1249.646l-.346,9.507c-3.006,8.409-8.17,15.231-17.029,12.711q-1.359-.387-2.633-.832c.284.036,5.706.77,7.975-1.5,2.331-2.335,2.088-10.07,6.383-15.227S773.262,1249.646,773.262,1249.646Z" transform="translate(-724.196 -1165.926)" fill="#ed7d2b"/>
      <path id="Path_22" data-name="Path 22" d="M781.89,1737.2s4.429,4.042,3.565,6.914-4.862,4.787-5.4,8.3-2.7,5.425-4.645,5.425h-9.271s-1.432-2.47,2.025-3.215,4.761-4.87,4.544-8.7a67.492,67.492,0,0,1,.324-8.935l7.346-1.7Z" transform="translate(-732.327 -1479.612)" fill="#0e2949"/>
      <path id="Path_23" data-name="Path 23" d="M673.341,1758.589h27.3a1.977,1.977,0,0,0,1.979-1.919,13.934,13.934,0,0,0-.976-5.887c-1.458-3.231-2.378-3.8,3.776-13.2-1.851,1.905-6.84,1.034-11.05.468-.516.836-8.327,12.9-10.05,14.142C682.413,1753.564,673.927,1753.077,673.341,1758.589Z" transform="translate(-672.58 -1481.097)" fill="#0e2949"/>
      <path id="Path_24" data-name="Path 24" d="M746.7,1364.016s-19.792,37.345-25.17,57.909c-4.174,15.961,21.3,77.719,21.3,77.719a20.409,20.409,0,0,0,5.479-1.473,8.887,8.887,0,0,0,4.605-4.827s-1.51-44.158-6.667-65.521c-1.158-4.8,5.607-20.263,17.026-28.735s16.173-35.729,9.376-37.571S746.7,1364.016,746.7,1364.016Z" transform="translate(-703.408 -1237.898)" fill="#707fe5"/>
      <path id="Path_25" data-name="Path 25" d="M762.072,1339.462s-20.806,76.27-27.117,93.4-16.321,53.478-16.321,53.478a26.371,26.371,0,0,0,14.432,1.566s30.423-44.569,31.748-64.269c.612-9.1,31.214-45.2,27.8-68.738Z" transform="translate(-701.834 -1223.946)" fill="#8c9df4"/>
      <path id="Path_26" data-name="Path 26" d="M831.221,1242.636s-4.428,2.232-12.255,2.888h-.007c-8.962.752-22.384-.567-38.731-9.669,0,0-4.56-3.757,1.042-19.735,4.24-12.1,6.306-37.6,11.481-60.843,0,0,16.789-5.267,30.259-.714,10.291,3.48,9.267,19.275,11.168,35.721.177,1.536.379,3.076.619,4.612C837.608,1212.9,831.221,1242.636,831.221,1242.636Z" transform="translate(-740.488 -1103.322)" fill="#f99746"/>
      <path id="Path_27" data-name="Path 27" d="M802.072,1041.267s11.459-18.653,20.333-9.054c0,0,5.8,1.482,9.125,10.514,3.39,9.216-1.89,17.353-5.416,16.039-2.262-.843-3.32,3.054-3.32,3.054Z" transform="translate(-755.727 -1023.72)" fill="#233862"/>
      <path id="Path_28" data-name="Path 28" d="M854.531,1020.259s.789-7.723,12.073-6.971c0,0-5.336.1-6.481,2.321,0,0,3.88-2.5,6.71-1.284s4.03,6.513,3.877,8.2-2.327,6.954-4.229,7.228-4.395-1.07-4.395-1.07Z" transform="translate(-789.611 -1013.236)" fill="#233862"/>
      <path id="Path_29" data-name="Path 29" d="M841.448,1129.592a52.083,52.083,0,0,1-3.9-14.812l-.678.238-11.391,4.012s.8,3.651,1.308,7.126c.209,1.42.358,3.956.455,6.171.1,2.264,2.326,2.478,4.589,2.373C837.849,1134.421,841.169,1132.175,841.448,1129.592Z" transform="translate(-770.843 -1078.824)" fill="#ffb27d"/>
      <path id="Path_30" data-name="Path 30" d="M825.475,1119.464s.8,3.651,1.308,7.127c6.534-1.131,9.14-7.616,10.083-11.138Z" transform="translate(-770.843 -1079.258)" fill="#e8945b"/>
      <path id="Path_31" data-name="Path 31" d="M819.752,1068.96s2.655-5.929,2.811-10.693c.111-3.4-3.35-15.452-15.449-11.9a16.955,16.955,0,0,0-6.581,3.635c-2.421,2.2-5.729,6.667.146,16.771l1.647,3.462Z" transform="translate(-752.703 -1034.216)" fill="#233862"/>
      <path id="Path_32" data-name="Path 32" d="M806.3,1087.152s15.561-1.982,14.178-11.653-.306-16.441-10.3-15.585-11.392,4.823-11.715,8.163S802.214,1087.419,806.3,1087.152Z" transform="translate(-753.383 -1043.339)" fill="#ffb27d"/>
      <path id="Path_33" data-name="Path 33" d="M811.514,1057.51s5.886,10.732,12.65,11.469,9.342-1.418,9.342-1.418a18.663,18.663,0,0,1-7.615-10.042S813.942,1051.648,811.514,1057.51Z" transform="translate(-761.826 -1040.151)" fill="#233862"/>
      <path id="Path_34" data-name="Path 34" d="M801.815,1061.731s-2.809,2.99-3.228,5.564-.036,7.693-1.539,7.734c0,0-4.314-7.249-1.344-12.13C798.854,1057.724,801.815,1061.731,801.815,1061.731Z" transform="translate(-750.94 -1043.604)" fill="#233862"/>
      <path id="Path_35" data-name="Path 35" d="M813.355,1059.755s4.741,11.444,13.52,14.062c0,0-9.283-6.112-11.112-13.854S813.355,1059.755,813.355,1059.755Z" transform="translate(-763.015 -1041.159)" fill="#233862"/>
      <path id="Path_36" data-name="Path 36" d="M900.228,1308.84s-4.428,2.232-12.255,2.888h-.007s-6.432-8.063.744-17.1-.56-25.706,4.965-34.775c3.845-6.309,7.588-4.84,9.511-3.366.177,1.536.379,3.076.619,4.612C906.615,1279.1,900.228,1308.84,900.228,1308.84Z" transform="translate(-809.495 -1169.526)" fill="#ed7d2b"/>
      <path id="Path_37" data-name="Path 37" d="M998.556,1368.827s.954,2.221,2.287,2.369a27.914,27.914,0,0,1,6.97,2.452c1.763,1.047,1.644,5.73-.119,6.171s-2.645-3.49-8.155-4.543c-1.869-.357-4.592.935-5.694-3.543Z" transform="translate(-879.594 -1242.913)" fill="#ffb27d"/>
      <path id="Path_38" data-name="Path 38" d="M898.207,1157.714c16.023,5.893,16.614,34.278,23.758,46.779,7.367,12.892,14.541,29.861,14.541,29.861s-.129.508-2.876,1.295a11.489,11.489,0,0,1-3.954.319s-15.138-13.694-19.251-19.1-13.81-30.465-13.81-30.465S891.846,1155.374,898.207,1157.714Z" transform="translate(-815.684 -1106.474)" fill="#f99746"/>
      <path id="Path_39" data-name="Path 39" d="M994.962,1380.169a6.062,6.062,0,0,0,2.752,3.45c2.363,1.543,4.258,3.086,4.486,2.131s-1.315-1.983-1.682-3.747S994.962,1380.169,994.962,1380.169Z" transform="translate(-880.316 -1250.239)" fill="#ffb27d"/>
    </g>
    <g id="girl_2" data-name="girl 2" transform="translate(593.109 620.628)">
      <path id="Path_40" data-name="Path 40" d="M1650.511,1324.9a22.825,22.825,0,0,0-20.478,5.846,60.833,60.833,0,0,0-7.459,8.533c-6,8.38,5.49,16.674,3.962,19.513s-5.069,5.081-3.52,11.009,11.768,13.62,15.1,13.962c33.764,3.467,48.418-15.147,37.131-25.182s-6.681-24.591-15.845-30.246A28.11,28.11,0,0,0,1650.511,1324.9Z" transform="translate(-1547.192 -1324.402)" fill="#162c51"/>
      <path id="Path_41" data-name="Path 41" d="M1511.758,1475.351s-30.813,14.927-36.585,14.676-41.85-12.957-41.85-12.957l.905,6.119s27.448,15.786,37.044,16.681c9.447.882,41.751-8.478,44.87-10.455S1520.821,1477.351,1511.758,1475.351Z" transform="translate(-1426.083 -1421.9)" fill="#ed985f"/>
      <path id="Path_42" data-name="Path 42" d="M1645.251,1454.275a30.58,30.58,0,0,0,10.69,4.549c16.478,3.807,22.792-10.119,25.164-19.679a14.16,14.16,0,0,0-5.583-1.715c-1.191-.14-2.444-.234-3.481-.285-1.85-1.418-4.607-7.218-5.217-16.223l-.775.208-12.986,3.554s.595,4.128.886,8.03c.226,3.053.261,5.971-.318,6.685-1.013.22-1.621.363-1.621.363a.032.032,0,0,1-.006.012A83.609,83.609,0,0,0,1645.251,1454.275Z" transform="translate(-1562.969 -1386.745)" fill="#ffb27d"/>
      <path id="Path_43" data-name="Path 43" d="M1667.312,1425.071s.6,4.125.886,8.03c7.357-.737,10.772-7.741,12.1-11.584Z" transform="translate(-1577.218 -1387.129)" fill="#ed985f"/>
      <path id="Path_44" data-name="Path 44" d="M1647.841,1387.8s17.463-.964,16.7-11.83.969-18.308-10.213-18.153-13.053,4.455-13.679,8.144S1643.278,1387.772,1647.841,1387.8Z" transform="translate(-1559.944 -1345.985)" fill="#ffb27d"/>
      <path id="Path_45" data-name="Path 45" d="M1638.216,1355.8c2.462-3.462,4.551-2.891,5.763-1.99a12.223,12.223,0,0,1,15.857,1.383,20.81,20.81,0,0,0,7.668,11.775s-3.1,2.475-10.5.833a18.534,18.534,0,0,1-13.174-11.581c-1,1.032-2.283,1.69-3.27,3.929a17.218,17.218,0,0,0-1.929,8.575S1634.524,1360.993,1638.216,1355.8Z" transform="translate(-1557.43 -1341.901)" fill="#162c51"/>
      <path id="Path_46" data-name="Path 46" d="M1667.207,1516.037c1.577-8.062,6.719-40.271,1.577-50.636-1.847-3.723-9.093-4.06-17.044-3.733-2.474,1.6-11.9,7.633-15.773,6.88-.041-.008-.117-.026-.217-.051-1.823-.456-2.512-1.737-.991-2.842a80.393,80.393,0,0,0-8.381,1.167c-2.762.52-10.346,5.175-10.346,5.175s3.439,5.35,8.972,7.69c-.941,8.414.458,12.127,9.187,31.563,7.377,16.428-1,31.22-1,31.22s43.423,34.913,43.665,17.136C1677.042,1546.224,1665.192,1526.341,1667.207,1516.037Z" transform="translate(-1544.096 -1413.001)" fill="#8ca0f4"/>
      <path id="Path_47" data-name="Path 47" d="M1584.325,1623.025a8.072,8.072,0,0,1-5.808-3.535q-.314-.471-.671-1.011c-4.943-7.482-6.866-30.4-17.984-54.81-2.708-5.943-12.429-7.012-15.079-13.731,0,0-6.524-21.776,12.487-22.418s50.914,60.592,51.418,67.013C1609.176,1600.753,1621.256,1627.192,1584.325,1623.025Z" transform="translate(-1497.378 -1455.593)" fill="#162c4f"/>
      <path id="Path_48" data-name="Path 48" d="M1445.036,1770.6h27.059s1.011-4.431-.765-7.446c-1.573-2.668-.97-4.188.195-6.4a10.275,10.275,0,0,1-4.557.881,9.368,9.368,0,0,1-4.024-1.453c-1.165,1.363-6.151,7.166-7.71,8.315C1453.465,1765.807,1445.581,1765.342,1445.036,1770.6Z" transform="translate(-1433.649 -1603.294)" fill="#aa3c3c"/>
      <path id="Path_49" data-name="Path 49" d="M1508.775,1532.244c-1.629,12.215-7.992,50.769-19.216,69.579-3.618,6.064,9.117,9.464,9.185,9.446,1.708-.447,4.554-3.17,5.866-4.352,9.112-8.212,27.61-31.466,27.61-50.109,0-9.09.159-26.451-6.451-30.864C1521.7,1523.227,1509.422,1527.393,1508.775,1532.244Z" transform="translate(-1461.99 -1454.023)" fill="#162c4f"/>
      <path id="Path_50" data-name="Path 50" d="M1627.016,1620.52a19.931,19.931,0,0,1-2.241-5.11c-1.455-5.1-1.972-8.819-4.766-16.77-2.935-8.347-6.417-18.616-10.768-29.3-1.343-3.3-2.769-6.636-4.285-9.969-2.709-5.943-10.158-5.122-12.808-11.841,0,0-10.342-23.292,8.669-23.934s55.136,62.306,57.212,68.4C1660.3,1598.672,1668.466,1626.913,1627.016,1620.52Z" transform="translate(-1526.855 -1453.059)" fill="#2b478b"/>
      <path id="Path_51" data-name="Path 51" d="M1501.13,1770.6h27.058s1.012-4.431-.764-7.446c-1.573-2.668-.97-4.188.195-6.4a10.276,10.276,0,0,1-4.557.881,9.365,9.365,0,0,1-4.024-1.453c-1.165,1.363-6.152,7.166-7.71,8.315C1509.56,1765.807,1501.675,1765.342,1501.13,1770.6Z" transform="translate(-1469.881 -1603.294)" fill="#c1514c"/>
      <path id="Path_52" data-name="Path 52" d="M1656.311,1649.2c-2.935-8.347-6.417-18.616-10.768-29.3,1.136-8.094,3.587-15.176,7.709-18.031C1653.252,1601.868,1663.251,1632.846,1656.311,1649.2Z" transform="translate(-1563.158 -1503.618)" fill="#233862"/>
      <path id="Path_53" data-name="Path 53" d="M1560.8,1532.262c-1.63,12.215-3.924,51.635-15.148,70.445-3.618,6.064,9.117,9.464,9.186,9.446,1.708-.447,4.554-3.17,5.865-4.352,9.112-8.212,27.61-31.466,27.61-50.109,0-9.09-10.668-25.722-17.278-30.134A6.649,6.649,0,0,0,1560.8,1532.262Z" transform="translate(-1498.221 -1454.907)" fill="#2b478b"/>
      <g id="Group_6" data-name="Group 6" transform="translate(0 36.475)">
        <path id="Path_54" data-name="Path 54" d="M1421.279,1430.363l27.711-2.943a1.789,1.789,0,0,1,1.86,1.142l9.915,26.052a1.788,1.788,0,0,1-1.6,2.423l-27.5,1.109a1.789,1.789,0,0,1-1.722-1.1l-10.128-24.218A1.789,1.789,0,0,1,1421.279,1430.363Z" transform="translate(-1417.271 -1427.41)" fill="#233862"/>
        <path id="Path_55" data-name="Path 55" d="M1414.481,1431.074l27.711-2.943a1.788,1.788,0,0,1,1.86,1.142l9.915,26.052a1.788,1.788,0,0,1-1.6,2.423l-27.5,1.109a1.789,1.789,0,0,1-1.723-1.1l-10.128-24.219A1.788,1.788,0,0,1,1414.481,1431.074Z" transform="translate(-1412.88 -1427.87)" fill="#2b478b"/>
        <path id="Path_56" data-name="Path 56" d="M1460.58,1467.743a1.139,1.139,0,0,1,1.071-1.684,2.664,2.664,0,0,1,2.3,1.684,1.139,1.139,0,0,1-1.071,1.684A2.664,2.664,0,0,1,1460.58,1467.743Z" transform="translate(-1443.62 -1452.373)" fill="#ebf3fa"/>
        <path id="Path_57" data-name="Path 57" d="M1419.646,1441.9a.559.559,0,0,1,.526-.827,1.308,1.308,0,0,1,1.128.827.56.56,0,0,1-.526.828A1.308,1.308,0,0,1,1419.646,1441.9Z" transform="translate(-1417.215 -1436.238)" fill="#ebf3fa"/>
      </g>
      <path id="Path_58" data-name="Path 58" d="M1597.5,1472.386s-38.405,14.143-44.176,13.853c-3.73-.187-34.732-11.085-34.732-11.085l-2.783,5.266s30.175,19.394,38.471,19.3c16.378-.189,44.013-10.242,47.132-12.219S1606.559,1474.387,1597.5,1472.386Z" transform="translate(-1479.359 -1419.985)" fill="#ffb27d"/>
      <path id="Path_59" data-name="Path 59" d="M1487.334,1472.152s-2.783-4.283-5.554-4.409-7.558,1.889-9.2,2.2-6.3,1.826-4.913,4.094,7.81,2.771,10.582,2.268,6.3,1.108,6.3,1.108Z" transform="translate(-1448.106 -1416.983)" fill="#ffb27d"/>
      <path id="Path_60" data-name="Path 60" d="M1498.061,1463.494s-4.407-2.022-5.667-2.4-1.008.006-.63,1.2,2.645,2.333,2.645,2.708S1498.061,1463.494,1498.061,1463.494Z" transform="translate(-1463.633 -1412.602)" fill="#ffb27d"/>
      <path id="Path_61" data-name="Path 61" d="M1425.251,1465.908s1.758-5.792,3.689-3.973c2.01,1.894.79,3.79.544,6.2-.47,4.618-1.4,4.419-1.995,4.21S1424.6,1468.231,1425.251,1465.908Z" transform="translate(-1420.796 -1413.007)" fill="#ffb27d"/>
      <path id="Path_62" data-name="Path 62" d="M1425.041,1476.291a7.358,7.358,0,0,0,3.794,7.5l-1.386-3.393Z" transform="translate(-1420.692 -1422.508)" fill="#ffb27d"/>
      <path id="Path_63" data-name="Path 63" d="M1651.874,1424.132s1.651-.653,6.3-.276c0,0-.247,1.812-3.673,1.992A2.733,2.733,0,0,1,1651.874,1424.132Z" transform="translate(-1567.247 -1388.564)" fill="#fff"/>
      <path id="Path_64" data-name="Path 64" d="M1690.627,1477.734s3.435,10.874,15.232,13.348c0,0,19.481-6,9.781-19.273C1715.64,1471.809,1706.05,1464.684,1690.627,1477.734Z" transform="translate(-1592.278 -1418.359)" fill="#8ca0f4"/>
      <path id="Path_65" data-name="Path 65" d="M1423.577,1471.485s-.809-2.713-.857-3.183.01-.706.428-.377a2.278,2.278,0,0,1,.865,2.023C1423.826,1470.772,1423.577,1471.485,1423.577,1471.485Z" transform="translate(-1419.227 -1417.005)" fill="#ffb27d"/>
    </g>
    <g id="Group_9" data-name="Group 9" transform="translate(527.543 364.288)">
      <g id="Group_7" data-name="Group 7">
        <path id="Path_66" data-name="Path 66" d="M1391.687,1064.384a2.257,2.257,0,0,0-.4,2.414.018.018,0,0,0,.006.012c.582,1.609,2.505,3.406,4.74,5.2.285.23.539.44.761.634.058.051.116.1.171.153s.088.08.131.119c2.083,1.92,1.3,2.36,5.042,6.257,4.268,4.44,7.206,4.52,8.042,4.116.707-.345-.729-2.7-2.321-5.347-.077-.127-.153-.257-.232-.386-.212-.352-.423-.709-.633-1.063-1.866-3.186-1.386-4.681-.944-9.421.359-3.853,5.993-21.523,5.993-21.523l-8.178-1.409s-2.463,14.071-5.177,16.238c-1.451,1.155-3.075,1.17-4.47,2.026-.1.06-.2.12-.29.183A10.725,10.725,0,0,0,1391.687,1064.384Z" transform="translate(-1333.25 -887.04)" fill="#ffb27d"/>
        <path id="Path_67" data-name="Path 67" d="M1391.687,1098.033a2.256,2.256,0,0,0-.4,2.413.018.018,0,0,0,.006.012c.713,1.608,2.588,3.395,4.748,5.183.282.234.531.449.753.65.058.051.116.1.171.153s.088.08.131.119c2.083,1.92,1.3,2.36,5.042,6.257,4.268,4.44,7.206,4.52,8.042,4.116.707-.345-.729-2.7-2.321-5.347a18.18,18.18,0,0,1-7.607-5.605c-2.476-3.16-4.158-7.187-5.843-9.66l-.481-.09A10.74,10.74,0,0,0,1391.687,1098.033Z" transform="translate(-1333.25 -920.689)" fill="#233862"/>
        <path id="Path_68" data-name="Path 68" d="M1567.054,1054.737c.5,2.524,4.1,2.1,8.124,1.121s3.064.186,8.787-.448,7.455-2.767,7.629-3.617c.156-.755-2.671-1.021-5.7-1.37-.381-.043-.764-.09-1.147-.137-3.424-.43-5.931-2.639-9.041-4.453-2.946-1.719-7.342-8.721-7.342-8.721l-7.847.621s4.117,6.254,5.71,8.973c.937,1.6.887,3.715.771,5.348A10.053,10.053,0,0,0,1567.054,1054.737Z" transform="translate(-1442.671 -882.5)" fill="#ffb27d"/>
        <path id="Path_69" data-name="Path 69" d="M1586.89,1080.139c4.021-.982,3.064.186,8.787-.448s7.455-2.767,7.629-3.618c.156-.755-2.671-1.021-5.7-1.37l-.028.058a16.131,16.131,0,0,1-8.195,2.547c-3.882.094-7.993-1.018-10.674-.975a10.053,10.053,0,0,0,.061,2.685C1579.271,1081.542,1582.87,1081.121,1586.89,1080.139Z" transform="translate(-1454.383 -906.781)" fill="#233862"/>
        <path id="Path_70" data-name="Path 70" d="M1444.956,922.245l-7.336,19.739-9.577,25.773a15.519,15.519,0,0,1-5.088-.465,22.043,22.043,0,0,1-4.92-2.4s2.659-27.673,7.62-43.559c1.271-4.078,2.7-7.375,4.268-9.232C1437.613,903.018,1444.956,922.245,1444.956,922.245Z" transform="translate(-1350.644 -800.184)" fill="#707fe5"/>
        <path id="Path_71" data-name="Path 71" d="M1343.574,849.469c-4.176-1.347-15.071-.021-26.888,2.118a8.015,8.015,0,0,1-8.276-3.738h0l-29.74-2.323s-9.814,21.763-4.441,35.63a5.218,5.218,0,0,0,5.2,3.353h0s17.971.025,23.719.025c14.79,0,31.3-10.167,33.437-10.594,3.5-.7,4.895,6.293,8.391,13.635s32.862,32.513,32.862,32.513,4.513.045,6.378-.654a6.281,6.281,0,0,0,2.739-1.728S1354.411,852.965,1343.574,849.469Z" transform="translate(-1256.72 -758.756)" fill="#8c9df4"/>
        <path id="Path_72" data-name="Path 72" d="M1276.444,602.239a10.549,10.549,0,0,0-5.681-1.478,15.8,15.8,0,0,1-2.743-.166c-11.35-1.664-18.186,14.823-18.586,19.8-.735,9.146-5.573,10.54-12.384,16.268-13.655,11.485-9.651,24.831-2.184,29.789,4.48,2.975,12.376,0,12.376,0,.112.078,21.6-12.01,32.186-17.841C1295.306,646.358,1282.823,606.036,1276.444,602.239Z" transform="translate(-1227.915 -600.477)" fill="#152949"/>
        <path id="Path_73" data-name="Path 73" d="M1321.7,692.03c.047.03-5.21,1.825-8.726.268-3.307-1.461-5.812-6.9-5.764-6.905,1.5-.069,3.156-1.385,4.428-10.015l.641.23,10.771,3.876s-.78,3.456-1.285,6.746C1321.339,688.993,1321.111,691.64,1321.7,692.03Z" transform="translate(-1279.061 -648.856)" fill="#ffb27d"/>
        <path id="Path_74" data-name="Path 74" d="M1332.3,679.9s-.429,1.865-1.057,5.348a12.162,12.162,0,0,1-9.714-9.224Z" transform="translate(-1288.308 -649.275)" fill="#ed975d"/>
        <path id="Path_75" data-name="Path 75" d="M1331.932,649.376s-14.737-1.978-13.364-11.136.4-15.581,9.863-14.706,10.767,4.644,11.052,7.812S1335.8,649.655,1331.932,649.376Z" transform="translate(-1286.339 -615.318)" fill="#ffb27d"/>
        <path id="Path_76" data-name="Path 76" d="M1331.233,624.849s-9.433,8.13-15.85,8.785-8.846-1.4-8.846-1.4a25.057,25.057,0,0,0,6.058-8.208,4.514,4.514,0,0,1,3.72-2.66C1320.9,620.966,1329.583,620.786,1331.233,624.849Z" transform="translate(-1278.627 -613.841)" fill="#152949"/>
        <path id="Path_77" data-name="Path 77" d="M1359.628,626.293s3.156,3.051,4.15,5.314c.959,2.184,1.247,7.408.483,9.483,0,0,4.917-9.561,2.133-14.206C1363.442,621.958,1359.628,626.293,1359.628,626.293Z" transform="translate(-1312.918 -616.013)" fill="#233862"/>
        <path id="Path_78" data-name="Path 78" d="M1311.039,731.373c-.445,29.831-.122,23.6-3.385,26.428-.786.681-3,1.087-5.906,1.28-9.147.607-25.226-.9-25.838-2.59-2.11-5.849-.62-7.666-2.381-16.621-.184-.952-.411-1.983-.677-3.106-1.468-6.15-2.9-8.243,2.311-18.124,4.722-8.951,9.628-16.215,10.069-15.952,12.458,7.4,13.463,1.179,13.463,1.179S1311.258,716.823,1311.039,731.373Z" transform="translate(-1255.992 -666.491)" fill="#2b478b"/>
        <path id="Path_79" data-name="Path 79" d="M1437.62,963.275l-9.577,25.773a15.521,15.521,0,0,1-5.088-.465,22.049,22.049,0,0,1-4.92-2.4s2.659-27.673,7.62-43.559Z" transform="translate(-1350.644 -821.474)" fill="#8c9df4"/>
        <path id="Path_80" data-name="Path 80" d="M1348.314,706.025s12.819,2.173,14.324,7.693,6.461,39.02,6.461,39.02-3.615,3.53-6.625.519S1353,721.913,1353,721.913Z" transform="translate(-1305.611 -668.651)" fill="#2b478b"/>
        <path id="Path_81" data-name="Path 81" d="M1305.462,804.255c-9.147.607-25.226-.9-25.838-2.59-2.11-5.849-.62-7.666-2.381-16.621l4.412-12.423s-.729,13.834,3.35,17.473,16.7,7.024,18.687,10.064A11.126,11.126,0,0,1,1305.462,804.255Z" transform="translate(-1259.706 -711.665)" fill="#162c4f"/>
        <path id="Path_82" data-name="Path 82" d="M1327.338,842.979s9.024-2.009,10.48-1.208,5.015,3.717,5.46,4.732-3.241-.771-4.441-1.092c-.777-.208-2.821.5-3.833.84-4.259,1.42-6.869.689-6.869.689Z" transform="translate(-1292.062 -756.208)" fill="#ffb27d"/>
        <path id="Path_83" data-name="Path 83" d="M1256.948,702.681s-12.117.746-16.312,6.6c-5.9,8.235-17.618,43.333-10.9,48.014,7.56,5.271,34.407,1.379,34.407,1.379s.893-4.176-.35-6.2-21.443-5.283-22.375-6.216,11.654-18.18,11.654-20.977S1256.948,702.681,1256.948,702.681Z" transform="translate(-1227.716 -666.491)" fill="#2b478b"/>
        <path id="Path_84" data-name="Path 84" d="M1358.169,849.208a17.451,17.451,0,0,0,2.511,2.73,1.847,1.847,0,0,0,1.02.219l-1.274-2.293Z" transform="translate(-1311.976 -761.133)" fill="#ffb27d"/>
        <path id="Path_85" data-name="Path 85" d="M1356.935,842.115l5.5,2.669a.979.979,0,0,1-.911.352,13.1,13.1,0,0,1-2.384-.655Z" transform="translate(-1311.179 -756.552)" fill="#ffb27d"/>
      </g>
      <g id="Group_8" data-name="Group 8" transform="translate(35.276 60.577)">
        <path id="Path_86" data-name="Path 86" d="M1384.761,859.838h-57.423v1.267h56.913Z" transform="translate(-1327.338 -828.576)" fill="#f99746"/>
        <path id="Path_87" data-name="Path 87" d="M1365.259,804.08h43.486l13.081-32.529h-43.419Z" transform="translate(-1351.831 -771.551)" fill="#f99746"/>
        <path id="Path_88" data-name="Path 88" d="M1449.359,813.707a1.506,1.506,0,0,0-1.477-2.07,2.967,2.967,0,0,0-2.665,2.07,1.507,1.507,0,0,0,1.477,2.07A2.967,2.967,0,0,0,1449.359,813.707Z" transform="translate(-1403.423 -797.443)" fill="#fff"/>
      </g>
    </g>
    <g id="Group_13" data-name="Group 13" transform="translate(754.1 485.534)">
      <g id="man">
        <path id="Path_89" data-name="Path 89" d="M2297.647,1120.026c-1.274,3.426-3.483,7.4-5.8,8.391a8.976,8.976,0,0,0-3.724,2.705l-2.123-1.232-2.534-1.473s.06-.281.184-.74.313-1.092.569-1.8a2.453,2.453,0,0,0,.3-2.255,5.235,5.235,0,0,1,.432-4.375c.813-1.181,1.6-4.092,2.087-4.005,1.186.2-.583,4.2-.075,4.947a.875.875,0,0,0,1.139.389l.02-.011c3.325-1.462,7.358-9.344,9.144-8.28C2297.932,1112.689,2298.19,1118.566,2297.647,1120.026Z" transform="translate(-2136.185 -1052.241)" fill="#ffb27d"/>
        <g id="Group_10" data-name="Group 10" transform="translate(149.681 56.185)">
          <path id="Path_90" data-name="Path 90" d="M2290.524,1117.928l4.165,2.928a.656.656,0,0,0,.911-.159l10.67-15.183a.656.656,0,0,0-.159-.911l-4.166-2.927a.656.656,0,0,0-.911.159l-10.671,15.183A.655.655,0,0,0,2290.524,1117.928Z" transform="translate(-2290.246 -1101.557)" fill="#2b478b"/>
          <path id="Path_91" data-name="Path 91" d="M2301.414,1125.548l2.442,1.716a.5.5,0,0,0,.693-.121l10.85-15.439a.5.5,0,0,0-.121-.693l-2.442-1.716a.5.5,0,0,0-.693.121l-10.85,15.439A.5.5,0,0,0,2301.414,1125.548Z" transform="translate(-2297.323 -1106.497)" fill="#233862"/>
        </g>
        <path id="Path_92" data-name="Path 92" d="M2101.232,1086.262s21.2,36.968,28.885,43.771l28.195-21.02a10.289,10.289,0,0,1,5.883,5.362s-17.121,34.882-33.979,36.361-40.517-41.81-40.517-41.81Z" transform="translate(-2011.03 -1035.493)" fill="#707fe5"/>
        <g id="Group_11" data-name="Group 11" transform="translate(20.541 136.2)">
          <path id="Path_93" data-name="Path 93" d="M1947.239,1751.013h-12.246c-1.542-.838-2.916-2.754-3.349-5.612-.6-3.945-5.02-6.1-5.977-9.324s3.946-7.767,3.946-7.767l.819-1.057.853-1.1,8.128,1.914s.2,1.937.324,4.4a56.355,56.355,0,0,1,.035,5.638c-.24,4.3,1.2,8.937,5.026,9.774C1947.625,1748.5,1947.5,1750.18,1947.239,1751.013Z" transform="translate(-1925.542 -1585.003)" fill="#162c4f"/>
          <path id="Path_94" data-name="Path 94" d="M2134.792,1770.229h-28.007c-1.347-1.644-.851-7.71-.646-9.69.042-.4.071-.632.071-.632s9.564-7.649,10.877-1.792c.04.184.089.363.142.54,1.655,5.479,9.078,7.969,13.365,8.662C2133.38,1767.77,2134.41,1769.219,2134.792,1770.229Z" transform="translate(-2042.022 -1604.219)" fill="#162c4f"/>
          <path id="Path_95" data-name="Path 95" d="M2098.448,1350.288s-1.452,18.118-3.159,39.9c-2.32,29.585-5.109,65.926-5.385,72.81-.477,11.954-2.392,31.077-2.392,31.077s-4.54,4.543-13.625,2.628c0,0-8.1-27.3-10.409-56.18-.036-.473-.072-.95-.108-1.427-2.152-29.4-5.5-91.316-5.5-91.316Z" transform="translate(-2011.015 -1340.607)" fill="#f99746"/>
          <path id="Path_96" data-name="Path 96" d="M2098.448,1350.288s-1.452,18.118-3.159,39.9l-31.811,50.335c-.036-.473-.072-.95-.108-1.427-2.152-29.4-5.5-91.316-5.5-91.316Z" transform="translate(-2011.015 -1340.607)" fill="#ed7d2b"/>
          <path id="Path_97" data-name="Path 97" d="M2013.766,1339.359s-26.176,65.617-43.387,96.453-22.589,39.442-22.589,39.442-9.861-3.944-10.757-6.633c0,0,6.582-59.531,18.107-74.044,6.513-8.2,14.163-32.809,14.522-41.414s2.331-25.637,2.331-25.637Z" transform="translate(-1932.964 -1327.526)" fill="#f99746"/>
        </g>
        <path id="Path_98" data-name="Path 98" d="M2085.89,1041.044c-10.228,3.228-27.1-5.873-27.1-5.873s8.608-6.687,8.115-21.4l7.909,6.374,5.372,4.329a64.416,64.416,0,0,1-.608,7.025c-.156,1.177-.438,3.012.444,3.954A60.731,60.731,0,0,0,2085.89,1041.044Z" transform="translate(-1991.064 -988.667)" fill="#ffb27d"/>
        <path id="Path_99" data-name="Path 99" d="M2094.922,1035.815a64.359,64.359,0,0,1-.609,7.025c-5.953-1.021-12.7-10.642-12.7-10.642a18.961,18.961,0,0,1,7.942-.711Z" transform="translate(-2005.805 -1000.013)" fill="#ed975d"/>
        <path id="Path_100" data-name="Path 100" d="M2091.179,992.321s-16.895,2.807-18.48-7.741-4.835-17.29,5.885-19.528,13.426,1.471,14.812,4.863S2095.533,991.32,2091.179,992.321Z" transform="translate(-1998.934 -956.763)" fill="#ffb27d"/>
        <path id="Path_101" data-name="Path 101" d="M2081.656,1168.387a1.654,1.654,0,0,1-1.075.41c-3.841-.052-15.042,2.081-24.519,1.108-7.99-.767-15.062-3.134-22.656-6.538-1.008-.453-3.329-1.691-3.277-2.818.034-1.234.157-3.024.311-5.279a282.366,282.366,0,0,0,.561-36.876c-.165-2.9-.251-5.769-.261-8.6-.078-21.082,4.1-39.624,12.5-45.9.717-.514,5.122,1.639,9.169,3.635a14.5,14.5,0,0,0,10.205,1.326l4.339,3.131c4.3,3.995,9.016,9.425,11.064,17.671,1.743,7.017,2.766,19.67,3.33,32.782.255,5.942.461,11.935.514,17.621v.2c.049.564.049,1.18.049,1.743C2082.117,1156.606,2081.911,1168.181,2081.656,1168.387Z" transform="translate(-1972.553 -1020.997)" fill="#8c9df4"/>
        <path id="Path_102" data-name="Path 102" d="M2031.006,1212.423a282.34,282.34,0,0,0,.561-36.876c-.165-2.9-.251-5.769-.261-8.6,3.5-8.489,6.359-14.644,6.359-14.644h8.819S2052.951,1196.472,2031.006,1212.423Z" transform="translate(-1973.121 -1078.15)" fill="#707fe5"/>
        <g id="Group_12" data-name="Group 12" transform="translate(0 145.247)">
          <path id="Path_103" data-name="Path 103" d="M1889.331,1401.074l37.616,5.36a9.017,9.017,0,0,0,10.169-7.633l2.323-16.3a9.017,9.017,0,0,0-7.633-10.169l-37.615-5.36a9.018,9.018,0,0,0-10.17,7.633l-2.323,16.3A9.017,9.017,0,0,0,1889.331,1401.074Z" transform="translate(-1876.625 -1361.993)" fill="#233862"/>
          <path id="Path_104" data-name="Path 104" d="M1924.839,1368.275v0a9.055,9.055,0,0,0-6.231-5.443h0a.008.008,0,0,1-.007,0c-.283-.069-.571-.126-.868-.168l-7.49-1.066.5-3.518a2.979,2.979,0,0,0-2.527-3.367l-1.954-.279-7.865-1.121-1.418-.2a2.98,2.98,0,0,0-3.367,2.527l-.5,3.518-12.929-1.843a9.053,9.053,0,0,0-10.208,7.661l-2.348,16.491a9.05,9.05,0,0,0,7.661,10.206l37.548,5.352a8.811,8.811,0,0,0,1.958.062h.006a8.883,8.883,0,0,0,2.931-.74,9.043,9.043,0,0,0,5.313-6.985l2.35-16.489A8.942,8.942,0,0,0,1924.839,1368.275Zm-29.382-12.377a1.117,1.117,0,0,1,1.259-.944l1.67.237,6.19.884,3.374.481a1.113,1.113,0,0,1,.944,1.256l-.5,3.518-13.436-1.916Z" transform="translate(-1867.533 -1353.077)" fill="#2b478b"/>
        </g>
        <path id="Path_105" data-name="Path 105" d="M1963.377,1321.052a6.106,6.106,0,0,0-1.583,4.31c.454,6.226-.286,9.047-4.291,9.689,0,0-4.751.894-4.812-1.9,0,0,2.235.02,1.767-3.892-.54-4.512-.485-4.554,2.476-6.911l1.961-3.241Z" transform="translate(-1922.537 -1185.889)" fill="#ffb27d"/>
        <path id="Path_106" data-name="Path 106" d="M1962.047,1161.5a28.915,28.915,0,0,0,6.619.368s9.429-29.127,10.642-31.788,28.007-34.153,28.007-34.153L1996.154,1068s-28.98,48.407-31.922,55.209c-4.863,11.24-6.551,36.44-6.551,36.44A12.134,12.134,0,0,0,1962.047,1161.5Z" transform="translate(-1925.76 -1023.695)" fill="#8c9df4"/>
        <path id="Path_107" data-name="Path 107" d="M2068.313,969.688s1.733-.29,1.454-2.678-.276-5.509,1.665-4.928,2.038,2.136,2.836,1.228.812-4.733,6.589-5,8.125,1.745,10.812.563,2.828-5.247,2.828-5.247a4.62,4.62,0,0,1-1.918,1.914s4.482-6.13-.707-10.334-10.48-1.452-13.484-1.27c-6.617.4-10.891.8-13.052,5.145S2064.067,965.5,2068.313,969.688Z" transform="translate(-1994.562 -942.885)" fill="#2b478b"/>
        <path id="Path_108" data-name="Path 108" d="M1975.088,1335.22s1.9,1.983,2.022,2.808c.385,2.648,1.27,3.792.826,4.08-.921.6-2.141-1.362-2.723-3.121A8.04,8.04,0,0,1,1975.088,1335.22Z" transform="translate(-1936.893 -1196.296)" fill="#ffb27d"/>
      </g>
    </g>
    <path id="Path_109" data-name="Path 109" d="M2312.019,1745.319H2286.8c-1.351-1.147.935-3.749,3.324-3.924a14.722,14.722,0,0,1,3.849.455c.347-4.609,2.328-25.326,9.8-24.494,8.4.932,0,9.123-2.374,13.973a115.241,115.241,0,0,0-4.46,11.175c.682.148,1.387.293,2.108.425,1.113-3.417,5.254-14.911,10.52-14.242,6.183.784,3.7,5.393-.685,8.128-3.215,2.012-7.163,4.871-9.039,6.252a26.8,26.8,0,0,0,4.931.4C2309.093,1743.361,2311.2,1744.634,2312.019,1745.319Z" transform="translate(-1383.981 -957.569)" fill="#a8d29f"/>
    <rect id="Rectangle_2" data-name="Rectangle 2" width="888" height="2.559" rx="1.28" transform="translate(143.695 787.744)" fill="#233862"/>
    <g id="Group_15" data-name="Group 15" transform="translate(795.348 391.076)">
      <path id="Path_110" data-name="Path 110" d="M2063.982,711.3c-1.842-30.148-22.99-35.176-42.422-35.169s-38.432,10.086-37.508,32.759c.4,9.784,3.131,18.28,9.612,24.3l-7.308,18.282,14.878-13.23c5.978,2.822,13.783,4.4,23.823,4.4C2054.832,742.629,2065.168,730.691,2063.982,711.3Z" transform="translate(-1984.021 -676.127)" fill="#abb9ff"/>
      <g id="Group_14" data-name="Group 14" transform="translate(23.832 15.021)">
        <path id="Path_111" data-name="Path 111" d="M2056.012,746.613h-4.686V741.2h5.623l1.51-9.06h-5.207v-5.415h6.144l1.406-8.175h5.572l-1.406,8.175h8.54l1.354-8.175h5.572l-1.406,8.175h4.634v5.415h-5.571l-1.51,9.06h5.207v5.415h-6.145L2074.184,755h-5.571l1.458-8.383h-8.54L2060.125,755h-5.571Zm15-5.415,1.562-9.06h-8.54l-1.562,9.06Z" transform="translate(-2051.326 -718.547)" fill="#ebf3fa"/>
      </g>
    </g>
    <g id="Group_16" data-name="Group 16" transform="translate(290.798 490.643)" opacity="0.3">
      <path id="Path_112" data-name="Path 112" d="M559.189,981.166c1.25-20.447,15.592-23.857,28.771-23.852s26.065,6.841,25.438,22.218c-.27,6.636-2.124,12.4-6.519,16.482l4.956,12.4-10.091-8.972c-4.054,1.914-9.348,2.986-16.158,2.984C565.4,1002.417,558.385,994.321,559.189,981.166Z" transform="translate(-559.128 -957.314)" fill="#aec3ff"/>
    </g>
    <g id="Group_23" data-name="Group 23" transform="translate(477.558 712.718)">
      <g id="Group_19" data-name="Group 19" transform="translate(0 9.293)">
        <g id="Group_17" data-name="Group 17" transform="translate(9.025 8.788)">
          <path id="Path_113" data-name="Path 113" d="M1124.66,1689.491l-.609-.1c-2.4-31.04-11.877-53.315-12.011-53.618l.555-.239C1112.727,1635.844,1122.275,1658.265,1124.66,1689.491Z" transform="translate(-1112.04 -1635.537)" fill="#a8d29f"/>
        </g>
        <g id="Group_18" data-name="Group 18">
          <path id="Path_114" data-name="Path 114" d="M1092.419,1617.7c1.169,1.324,6.642,3.454,7.02,3.12s-1.056-6.029-2.225-7.353a3.2,3.2,0,0,0-4.8,4.233Z" transform="translate(-1089.825 -1611.794)" fill="#fff"/>
          <path id="Path_115" data-name="Path 115" d="M1114.458,1612.007c-1.055,1.416-2.014,7.211-1.61,7.512s5.683-2.274,6.739-3.69a3.2,3.2,0,1,0-5.128-3.822Z" transform="translate(-1103.476 -1610.72)" fill="#fff"/>
          <path id="Path_116" data-name="Path 116" d="M1121.515,1631.566c-1.7-.464-7.448.763-7.58,1.249s4.195,4.458,5.9,4.922a3.2,3.2,0,0,0,1.682-6.171Z" transform="translate(-1104.237 -1624.118)" fill="#fff"/>
          <path id="Path_117" data-name="Path 117" d="M1112.76,1641.327c-.17-1.758-3.354-6.694-3.856-6.645s-2.681,5.5-2.511,7.261a3.2,3.2,0,0,0,6.367-.615Z" transform="translate(-1099.361 -1626.197)" fill="#fff"/>
          <path id="Path_118" data-name="Path 118" d="M1091.238,1640.777c1.564-.821,4.932-5.632,4.7-6.079s-6.107-.406-7.672.416a3.2,3.2,0,0,0,2.973,5.663Z" transform="translate(-1086.553 -1626.025)" fill="#fff"/>
          <path id="Path_119" data-name="Path 119" d="M1110.092,1633.128a1.053,1.053,0,1,1,.874,1.206A1.053,1.053,0,0,1,1110.092,1633.128Z" transform="translate(-1101.748 -1624.62)" fill="#f78248"/>
        </g>
        <path id="Path_120" data-name="Path 120" d="M1133.886,1657.167c-1.738,2.137-3.614,11.1-3,11.6s9.005-3.168,10.743-5.306a4.988,4.988,0,1,0-7.74-6.293Z" transform="translate(-1115.109 -1639.531)" fill="#a8d29f"/>
        <path id="Path_121" data-name="Path 121" d="M1117.971,1732.574c1.8.88,5.795,6.233,5.544,6.748s-6.926.668-8.73-.212a3.635,3.635,0,1,1,3.187-6.535Z" transform="translate(-1103.468 -1689.188)" fill="#a8d29f"/>
      </g>
      <g id="Group_22" data-name="Group 22" transform="translate(32.853)">
        <g id="Group_20" data-name="Group 20" transform="translate(6.185 10.089)">
          <path id="Path_122" data-name="Path 122" d="M1196.8,1674.914l.7-.112c2.755-35.637,13.637-61.212,13.79-61.559l-.637-.275C1210.5,1613.32,1199.538,1639.062,1196.8,1674.914Z" transform="translate(-1196.8 -1612.968)" fill="#a8d29f"/>
        </g>
        <g id="Group_21" data-name="Group 21" transform="translate(8.491)">
          <path id="Path_123" data-name="Path 123" d="M1243.737,1592.486c-1.342,1.521-7.626,3.966-8.06,3.583s1.212-6.923,2.554-8.443a3.672,3.672,0,0,1,5.506,4.86Z" transform="translate(-1224.171 -1585.708)" fill="#fff"/>
          <path id="Path_124" data-name="Path 124" d="M1219.3,1585.952c1.212,1.626,2.313,8.279,1.848,8.625s-6.525-2.61-7.737-4.236a3.672,3.672,0,0,1,5.888-4.388Z" transform="translate(-1209.368 -1584.474)" fill="#fff"/>
          <path id="Path_125" data-name="Path 125" d="M1206.02,1608.408c1.956-.533,8.551.876,8.7,1.434s-4.816,5.118-6.772,5.651a3.672,3.672,0,0,1-1.931-7.086Z" transform="translate(-1203.313 -1599.857)" fill="#fff"/>
          <path id="Path_126" data-name="Path 126" d="M1223.508,1619.616c.2-2.019,3.85-7.685,4.427-7.629s3.078,6.317,2.883,8.336a3.672,3.672,0,0,1-7.31-.707Z" transform="translate(-1216.346 -1602.244)" fill="#fff"/>
          <path id="Path_127" data-name="Path 127" d="M1241.926,1618.985c-1.8-.943-5.663-6.467-5.394-6.979s7.012-.465,8.808.477a3.672,3.672,0,0,1-3.414,6.5Z" transform="translate(-1224.76 -1602.047)" fill="#fff"/>
          <path id="Path_128" data-name="Path 128" d="M1235.543,1610.2a1.209,1.209,0,1,0-1,1.384A1.209,1.209,0,0,0,1235.543,1610.2Z" transform="translate(-1222.578 -1600.434)" fill="#f78248"/>
        </g>
        <path id="Path_129" data-name="Path 129" d="M1186.535,1691.818c1.413,1.738,2.938,9.028,2.442,9.432s-7.322-2.576-8.735-4.314a4.056,4.056,0,1,1,6.293-5.118Z" transform="translate(-1179.332 -1652.841)" fill="#a8d29f"/>
        <path id="Path_130" data-name="Path 130" d="M1208.323,1724.378c-2.072,1.01-6.654,7.156-6.365,7.747s7.952.766,10.023-.244a4.174,4.174,0,1,0-3.658-7.5Z" transform="translate(-1193.938 -1674.565)" fill="#a8d29f"/>
      </g>
      <path id="Path_131" data-name="Path 131" d="M1103.722,1787.956s5.893-6.419,18.572-4.1,19.643-4.484,21.965,4.1Z" transform="translate(-1097.642 -1712.931)" fill="#a8d29f"/>
    </g>
  </g>
</svg>
